<svg width="24" height="24" viewBox="0 0 24 24" fill="none" xmlns="http://www.w3.org/2000/svg">
<path d="M18.375 20.25C19.8247 20.25 21 19.0747 21 17.625C21 16.1753 19.8247 15 18.375 15C16.9253 15 15.75 16.1753 15.75 17.625C15.75 19.0747 16.9253 20.25 18.375 20.25Z" stroke="white" stroke-linecap="round" stroke-linejoin="round"/>
<path d="M18.375 15V11.2406C18.3734 10.0451 17.8981 8.89893 17.0531 8.05313L13.5 4.5" stroke="white" stroke-linecap="round" stroke-linejoin="round"/>
<path d="M13.5 8.25V8.25C13.5 6.17893 15.1789 4.5 17.25 4.5V4.5" stroke="white" stroke-linecap="round" stroke-linejoin="round"/>
<path d="M5.625 9C7.07475 9 8.25 7.82475 8.25 6.375C8.25 4.92525 7.07475 3.75 5.625 3.75C4.17525 3.75 3 4.92525 3 6.375C3 7.82475 4.17525 9 5.625 9Z" stroke="white" stroke-linecap="round" stroke-linejoin="round"/>
<path d="M5.625 9V12.7594C5.62662 13.9549 6.10194 15.1011 6.94687 15.9469L10.5 19.5" stroke="white" stroke-linecap="round" stroke-linejoin="round"/>
<path d="M10.5 15.75V15.75C10.5 17.8211 8.82107 19.5 6.75 19.5V19.5" stroke="white" stroke-linecap="round" stroke-linejoin="round"/>
</svg>
