<svg width="16" height="16" viewBox="0 0 16 16" fill="none" xmlns="http://www.w3.org/2000/svg">
<path d="M1.84615 15.3846C1.50629 15.7245 0.955251 15.7245 0.615384 15.3846V15.3846C0.275517 15.0447 0.275517 14.4937 0.615384 14.1538L6.76923 8L0.615384 1.84615C0.275516 1.50628 0.275517 0.955252 0.615384 0.615384V0.615384C0.955252 0.275517 1.50629 0.275517 1.84615 0.615384L8 6.76923L14.1538 0.615384C14.4937 0.275516 15.0447 0.275517 15.3846 0.615384V0.615384C15.7245 0.955251 15.7245 1.50629 15.3846 1.84615L9.23077 8L15.3846 14.1538C15.7245 14.4937 15.7245 15.0447 15.3846 15.3846V15.3846C15.0447 15.7245 14.4937 15.7245 14.1538 15.3846L8 9.23077L1.84615 15.3846Z" fill="white"/>
</svg>
