<svg width="28" height="29" viewBox="0 0 28 29" fill="none" xmlns="http://www.w3.org/2000/svg">
<path d="M9.1875 27.1064C9.53263 27.1079 9.87462 27.041 10.1938 26.9096C10.5129 26.7782 10.8028 26.5849 11.0469 26.3408C11.2909 26.0968 11.4842 25.8068 11.6156 25.4877C11.747 25.1686 11.8139 24.8266 11.8125 24.4814V19.2314" stroke="white" stroke-width="2" stroke-linecap="round" stroke-linejoin="round"/>
<path d="M18.8125 27.1064C18.4674 27.1079 18.1254 27.041 17.8063 26.9096C17.4871 26.7782 17.1972 26.5849 16.9531 26.3408C16.7091 26.0968 16.5158 25.8068 16.3844 25.4877C16.253 25.1686 16.1861 24.8266 16.1875 24.4814V19.2314" stroke="white" stroke-width="2" stroke-linecap="round" stroke-linejoin="round"/>
<path d="M16.625 19.2315H18.375C18.7201 19.23 19.0621 19.2969 19.3813 19.4283C19.7004 19.5597 19.9903 19.753 20.2344 19.9971C20.4784 20.2411 20.6717 20.5311 20.8031 20.8502C20.9345 21.1693 21.0014 21.5113 21 21.8565V22.7315C20.9986 23.0766 21.0655 23.4186 21.1969 23.7377C21.3283 24.0569 21.5216 24.3468 21.7656 24.5908C22.0097 24.8349 22.2996 25.0282 22.6187 25.1596C22.9379 25.291 23.2799 25.3579 23.625 25.3565" stroke="white" stroke-width="2" stroke-linecap="round" stroke-linejoin="round"/>
<path d="M11.375 19.2315H9.625C9.27987 19.23 8.93788 19.2969 8.61875 19.4283C8.29961 19.5597 8.00966 19.753 7.76562 19.9971C7.52158 20.2411 7.32827 20.5311 7.19687 20.8502C7.06546 21.1693 6.99855 21.5113 7 21.8565V22.7315C7.00145 23.0766 6.93454 23.4186 6.80313 23.7377C6.67173 24.0569 6.47842 24.3468 6.23438 24.5908C5.99034 24.8349 5.70039 25.0282 5.38125 25.1596C5.06212 25.291 4.72013 25.3579 4.375 25.3565" stroke="white" stroke-width="2" stroke-linecap="round" stroke-linejoin="round"/>
<path d="M12.2281 7.85645C11.7141 7.052 11.0058 6.38989 10.1686 5.93115C9.33138 5.4724 8.39216 5.23177 7.4375 5.23145C7.01302 5.9662 6.75832 6.78663 6.69208 7.6326C6.62584 8.47857 6.74974 9.32864 7.05469 10.1205C6.45663 11.0021 6.13313 12.0411 6.125 13.1064V13.9814C6.125 15.3738 6.67812 16.7092 7.66269 17.6938C8.64726 18.6783 9.98261 19.2314 11.375 19.2314H16.625C18.0174 19.2314 19.3527 18.6783 20.3373 17.6938C21.3219 16.7092 21.875 15.3738 21.875 13.9814V13.1064C21.8669 12.0411 21.5434 11.0021 20.9453 10.1205C21.2503 9.32864 21.3742 8.47857 21.3079 7.6326C21.2417 6.78663 20.987 5.9662 20.5625 5.23145C19.6078 5.23177 18.6686 5.4724 17.8314 5.93115C16.9942 6.38989 16.2859 7.052 15.7719 7.85645H12.2281Z" stroke="white" stroke-width="2" stroke-linecap="round" stroke-linejoin="round"/>
</svg>
