<svg width="32" height="33" viewBox="0 0 32 33" fill="none" xmlns="http://www.w3.org/2000/svg">
<path d="M26.5 5.35645H5.5C4.94772 5.35645 4.5 5.80416 4.5 6.35645V27.3564C4.5 27.9087 4.94772 28.3564 5.5 28.3564H26.5C27.0523 28.3564 27.5 27.9087 27.5 27.3564V6.35645C27.5 5.80416 27.0523 5.35645 26.5 5.35645Z" stroke="white" stroke-width="2" stroke-linecap="round" stroke-linejoin="round"/>
<path d="M15 14.8564V22.8564" stroke="white" stroke-width="2" stroke-linecap="round" stroke-linejoin="round"/>
<path d="M11 14.8564V22.8564" stroke="white" stroke-width="2" stroke-linecap="round" stroke-linejoin="round"/>
<path d="M15 18.3564C15 17.4282 15.3687 16.5379 16.0251 15.8816C16.6815 15.2252 17.5717 14.8564 18.5 14.8564C19.4283 14.8564 20.3185 15.2252 20.9749 15.8816C21.6313 16.5379 22 17.4282 22 18.3564V22.8564" stroke="white" stroke-width="2" stroke-linecap="round" stroke-linejoin="round"/>
<path d="M11 12.3564C11.8284 12.3564 12.5 11.6849 12.5 10.8564C12.5 10.028 11.8284 9.35645 11 9.35645C10.1716 9.35645 9.5 10.028 9.5 10.8564C9.5 11.6849 10.1716 12.3564 11 12.3564Z" fill="white"/>
</svg>
